<svg width="219" height="46" viewBox="0 0 219 46" fill="none" xmlns="http://www.w3.org/2000/svg">
<path fill-rule="evenodd" clip-rule="evenodd" d="M12.6548 23.5371V23.7158L7.76639 26.645C7.22672 26.0138 6.52798 25.5538 5.74994 25.3176V9.62524L6.11045 9.52314L13.0275 22.0311C12.7577 22.4827 12.6158 23.0048 12.6181 23.5371H12.6548ZM8.243 8.03622L23.4519 17.2066L16.9565 21.1249C16.5046 20.8086 15.9729 20.6398 15.4289 20.6399C15.2464 20.6426 15.0644 20.6618 14.8851 20.6973L8.02303 8.29149L8.243 8.03622ZM42.7121 5.61759L25.6884 15.8728L9.2329 5.9622C9.30906 5.61035 9.348 5.25082 9.349 4.89009C9.35046 3.9738 9.10498 3.07557 8.64063 2.29813C8.17628 1.52068 7.5118 0.895417 6.72318 0.493834C5.93457 0.0922514 5.05366 -0.0694349 4.18119 0.0272641C3.30873 0.123963 2.47993 0.475145 1.78959 1.04065C1.09924 1.60615 0.575222 2.36314 0.277453 3.22505C-0.0203166 4.08696 -0.0798121 5.01899 0.105768 5.91456C0.291349 6.81012 0.714516 7.63306 1.32687 8.28926C1.93923 8.94547 2.71605 9.40844 3.5685 9.62524V25.241C2.9071 25.3985 2.28967 25.714 1.76473 26.1628C1.23979 26.6115 0.821644 27.1813 0.543144 27.8273C0.264645 28.4733 0.133384 29.178 0.159669 29.8859C0.185955 30.5939 0.36907 31.2858 0.694633 31.9074C1.0202 32.5289 1.47934 33.0632 2.03597 33.4681C2.59261 33.8731 3.23158 34.1377 3.90267 34.2412C4.57376 34.3447 5.2587 34.2843 5.90366 34.0647C6.54862 33.8451 7.13603 33.4723 7.61974 32.9755L21.466 41.3546C21.5232 42.618 22.0483 43.8088 22.9303 44.6755C23.8124 45.5422 24.9825 46.0169 26.1934 45.9995C27.4044 45.9821 28.5615 45.4739 29.4204 44.5822C30.2793 43.6905 30.7728 42.4851 30.7967 41.2206V40.8058L43.7387 33.0011C44.5508 33.8436 45.6492 34.3162 46.7939 34.3157C47.8685 34.3109 48.904 33.8944 49.7041 33.1452C50.5042 32.396 51.0132 31.3661 51.1345 30.251C51.2558 29.1359 50.981 28.013 50.3623 27.0955C49.7435 26.1779 48.8238 25.5294 47.7777 25.2729V9.74649C48.6777 9.65627 49.5333 9.29501 50.2405 8.70662C50.9477 8.11823 51.4761 7.32802 51.7614 6.43198C52.0468 5.53594 52.0768 4.57264 51.848 3.6591C51.6191 2.74556 51.1411 1.92108 50.4721 1.28584C49.8031 0.650593 48.9719 0.231914 48.0794 0.08066C47.1869 -0.0705939 46.2715 0.0520888 45.4445 0.433802C44.6175 0.815515 43.9144 1.43983 43.4207 2.23091C42.927 3.02199 42.6638 3.94579 42.6632 4.89009C42.663 5.1335 42.6793 5.37661 42.7121 5.61759ZM34.3835 21.1249L27.8881 17.2066L43.5554 7.76181V7.80648L36.4306 20.6973C36.2491 20.6618 36.0652 20.6426 35.8806 20.6399C35.3469 20.6453 34.8265 20.8139 34.3835 21.1249ZM44.5575 29.7082C44.5563 29.2459 44.6864 28.7937 44.9314 28.4088C45.1764 28.0239 45.5253 27.7235 45.9338 27.5457C46.3423 27.368 46.7922 27.3208 47.2264 27.4102C47.6607 27.4996 48.0597 27.7216 48.3731 28.0479C48.6865 28.3743 48.9001 28.7905 48.9869 29.2438C49.0737 29.697 49.0298 30.167 48.8607 30.5941C48.6916 31.0213 48.4049 31.3864 48.037 31.6434C47.6691 31.9003 47.2365 32.0374 46.7939 32.0374C46.2018 32.0374 45.6339 31.7922 45.2147 31.3556C44.7954 30.919 44.5591 30.3265 44.5575 29.7082ZM49.568 4.89009C49.5692 5.35231 49.4391 5.80451 49.1941 6.18945C48.9491 6.57439 48.6002 6.87475 48.1917 7.05251C47.7831 7.23027 47.3333 7.27744 46.8991 7.18804C46.4648 7.09864 46.0658 6.87669 45.7524 6.5503C45.439 6.2239 45.2254 5.80774 45.1386 5.35449C45.0518 4.90124 45.0958 4.43129 45.2648 4.00413C45.4339 3.57697 45.7206 3.21181 46.0885 2.95488C46.4564 2.69795 46.889 2.56081 47.3316 2.56081C47.9237 2.5608 48.4916 2.80601 48.9109 3.24265C49.3301 3.67929 49.5664 4.27174 49.568 4.89009ZM28.3647 41.1887C28.366 41.6509 28.2358 42.1031 27.9908 42.488C27.7458 42.873 27.3969 43.1733 26.9884 43.3511C26.5799 43.5288 26.13 43.576 25.6958 43.4866C25.2615 43.3972 24.8625 43.1753 24.5491 42.8489C24.2357 42.5225 24.0221 42.1063 23.9353 41.6531C23.8485 41.1998 23.8925 40.7299 24.0616 40.3027C24.2306 39.8755 24.5173 39.5104 24.8852 39.2534C25.2531 38.9965 25.6857 38.8594 26.1283 38.8594C26.7204 38.8594 27.2883 39.1046 27.7076 39.5412C28.1268 39.9779 28.3631 40.5703 28.3647 41.1887ZM29.5318 37.8511L35.8439 26.428H35.9112C36.5488 26.4336 37.1686 26.2081 37.6649 25.7898L42.5166 28.7126C42.3582 29.4704 42.3813 30.2573 42.5838 31.0036L30.0573 38.5594C29.9034 38.307 29.7275 38.0698 29.5318 37.8511ZM6.92315 4.89009C6.92435 5.35258 6.79406 5.80504 6.54878 6.19011C6.30351 6.57519 5.95429 6.87555 5.54539 7.05312C5.13649 7.23069 4.68631 7.27748 4.25192 7.18756C3.81752 7.09764 3.41847 6.87506 3.10533 6.54803C2.79219 6.221 2.57907 5.80423 2.49297 5.35057C2.40688 4.8969 2.45168 4.42675 2.6217 3.9997C2.79173 3.57265 3.07933 3.20794 3.44804 2.95178C3.81675 2.69562 4.24999 2.55954 4.69283 2.56081C5.28173 2.56584 5.84495 2.81327 6.26024 3.24937C6.67552 3.68547 6.90933 4.27504 6.91092 4.89009H6.92315ZM6.79483 29.7082C6.79483 30.1701 6.66366 30.6217 6.41792 31.0058C6.17218 31.3899 5.82289 31.6892 5.41424 31.866C5.00559 32.0428 4.55592 32.0891 4.12209 31.9989C3.68827 31.9088 3.28977 31.6864 2.977 31.3597C2.66423 31.0331 2.45123 30.6169 2.36494 30.1638C2.27865 29.7107 2.32293 29.2411 2.4922 28.8143C2.66147 28.3875 2.94813 28.0228 3.3159 27.7661C3.68368 27.5095 4.11607 27.3725 4.5584 27.3725C5.14941 27.3759 5.71513 27.6234 6.1319 28.0611C6.54867 28.4987 6.78261 29.0909 6.7826 29.7082H6.79483ZM15.5022 26.428L22.2237 38.5531C22.1423 38.6849 22.0689 38.819 22.0038 38.9551L8.75628 30.9909C8.86897 30.5756 8.92654 30.1461 8.92737 29.7145C8.92704 29.3755 8.89222 29.0375 8.8235 28.7062L13.6752 25.7835C14.1715 26.2017 14.7912 26.4272 15.4289 26.4216L15.5022 26.428ZM33.1553 23.5371C33.1538 24.242 33.3994 24.923 33.8458 25.4516L27.6865 36.5939C27.0629 36.3654 26.3999 36.2779 25.7415 36.3373C25.0831 36.3967 24.4443 36.6017 23.8674 36.9385L17.5187 25.4516C17.9651 24.923 18.2107 24.242 18.2092 23.5371C18.2094 23.3811 18.1971 23.2252 18.1725 23.0713L25.6884 18.5467L33.1981 23.0713C33.1674 23.2247 33.149 23.3805 33.1431 23.5371H33.1553ZM38.6975 23.5371C38.6968 23.0033 38.5551 22.48 38.2881 22.0247L45.3335 9.2934L45.5657 9.40189V25.3176C44.7876 25.5538 44.0889 26.0138 43.5492 26.645L38.6609 23.7158L38.6975 23.5371Z" fill="#00A3FF"/>
<path d="M84.568 10.72L79.832 24.672C79.448 25.856 79.128 27.008 78.808 28.192C78.52 27.008 78.168 25.856 77.784 24.672L73.08 10.72H68.056L75.192 32H82.328L89.464 10.72H84.568ZM90.4445 13.888H95.5965V10.72H90.4445V13.888ZM90.6685 32H95.4045V16H90.6685V32ZM106.215 32H109.223V28.224H105.062V19.584H109.671V16H105.062V12.192H102.663L100.711 15.968L97.4145 17.312V19.584H100.327V26.24C100.327 30.048 101.671 32 106.215 32ZM116.876 32.416C120.14 32.416 122.06 30.784 122.796 28.576C122.796 29.888 122.892 30.944 123.052 32H127.18C127.02 30.624 126.924 29.344 126.924 27.84V20.928C126.924 17.536 124.556 15.456 119.692 15.456C114.828 15.456 112.012 17.792 111.884 21.216H116.524C116.588 19.584 117.612 18.72 119.788 18.72C121.932 18.72 122.572 19.456 122.572 20.576C122.572 21.504 122.06 21.92 120.588 22.176L116.812 22.816C112.684 23.52 111.564 25.184 111.564 27.744C111.564 30.624 113.644 32.416 116.876 32.416ZM118.476 29.184C117.196 29.184 116.236 28.544 116.236 27.264C116.236 26.048 116.908 25.44 118.604 25.024L119.948 24.704C120.94 24.48 121.74 24.256 122.572 23.68V24.384C122.572 27.36 120.972 29.184 118.476 29.184ZM148.24 26.816C148.24 23.744 146.544 22.656 144.368 22.112C146.896 21.568 148.816 19.552 148.816 16.544C148.816 13.088 146.48 10.72 141.776 10.72H130.544V32H135.44V23.776H139.824C141.936 23.776 143.376 24.8 143.376 27.2V28.32C143.376 30.08 143.536 31.232 143.792 32H148.656C148.432 30.976 148.24 30.016 148.24 28.256V26.816ZM140.688 20.288H135.44V14.496H140.688C142.8 14.496 143.728 15.456 143.728 17.248C143.728 19.232 142.896 20.288 140.688 20.288ZM159.669 29.248C157.397 29.248 155.893 28.256 155.605 25.216H167.797C167.861 24.864 167.861 24.416 167.861 23.936C167.861 19.424 165.621 15.488 159.573 15.488C153.653 15.488 150.965 19.328 150.965 23.968C150.965 28.48 153.333 32.512 159.573 32.512C165.333 32.512 167.381 29.728 167.829 27.168H163.285C162.837 28.352 161.749 29.248 159.669 29.248ZM159.637 18.688C162.005 18.688 163.189 19.904 163.349 22.336H155.637C156.021 19.616 157.365 18.688 159.637 18.688ZM178.482 29.248C176.21 29.248 174.706 28.256 174.418 25.216H186.61C186.674 24.864 186.674 24.416 186.674 23.936C186.674 19.424 184.434 15.488 178.386 15.488C172.466 15.488 169.778 19.328 169.778 23.968C169.778 28.48 172.146 32.512 178.386 32.512C184.146 32.512 186.194 29.728 186.642 27.168H182.098C181.65 28.352 180.562 29.248 178.482 29.248ZM178.45 18.688C180.818 18.688 182.002 19.904 182.162 22.336H174.45C174.834 19.616 176.178 18.688 178.45 18.688ZM189.231 32H193.967V9.6H189.231V32ZM196.488 26.784C196.584 29.824 198.728 32.512 204.424 32.512C209.928 32.512 211.912 30.336 211.912 27.2C211.912 24.352 210.472 22.72 206.664 22.24L203.304 21.856C201.704 21.664 201.288 21.024 201.288 20.224C201.288 19.2 202.12 18.432 204.168 18.432C206.152 18.432 207.144 19.36 207.304 20.672H211.688C211.4 17.152 208.488 15.456 204.168 15.456C199.912 15.456 196.904 17.12 196.904 20.672C196.904 23.36 198.536 24.96 201.544 25.344L205.128 25.792C206.92 26.016 207.368 26.72 207.368 27.68C207.368 28.8 206.632 29.536 204.488 29.536C202.088 29.536 200.936 28.32 200.808 26.784H196.488Z" fill="#00A3FF"/>
</svg>
