<svg width="158" height="29" viewBox="0 0 158 29" fill="none" xmlns="http://www.w3.org/2000/svg">
<path fill-rule="evenodd" clip-rule="evenodd" d="M8.0309 14.8386V14.9513L4.92867 16.7979C4.58619 16.4 4.14275 16.11 3.649 15.9611V6.06809L3.87779 6.00372L8.26745 13.8892C8.09622 14.1739 8.00615 14.503 8.00764 14.8386H8.0309ZM5.23114 5.06631L14.883 10.8476L10.7609 13.3179C10.4741 13.1185 10.1366 13.0121 9.79142 13.0121C9.67558 13.0138 9.56011 13.0259 9.4463 13.0483L5.09154 5.22724L5.23114 5.06631ZM27.1058 3.54153L16.3022 10.0068L5.85934 3.75878C5.90767 3.53696 5.93238 3.3103 5.93302 3.08288C5.93395 2.50522 5.77816 1.93894 5.48348 1.44882C5.18879 0.958692 4.7671 0.564502 4.26663 0.31133C3.76617 0.0581585 3.20713 -0.0437742 2.65345 0.0171882C2.09977 0.0781506 1.5738 0.299548 1.1357 0.65606C0.697596 1.01257 0.365045 1.4898 0.176076 2.03318C-0.0128932 2.57656 -0.05065 3.16415 0.0671223 3.72874C0.184894 4.29334 0.453443 4.81215 0.842053 5.22584C1.23066 5.63953 1.72365 5.93141 2.26463 6.06809V15.9128C1.84489 16.0121 1.45306 16.211 1.11993 16.4939C0.786792 16.7768 0.521428 17.136 0.344688 17.5433C0.167948 17.9506 0.0846477 18.3948 0.101329 18.8411C0.11801 19.2874 0.234217 19.7237 0.440825 20.1155C0.647432 20.5074 0.938809 20.8442 1.29206 21.0995C1.64531 21.3548 2.05081 21.5216 2.47669 21.5869C2.90258 21.6521 3.33725 21.614 3.74655 21.4756C4.15585 21.3371 4.52864 21.1021 4.8356 20.7889L13.6227 26.0714C13.659 26.8679 13.9922 27.6186 14.5519 28.165C15.1117 28.7114 15.8542 29.0107 16.6227 28.9997C17.3913 28.9887 18.1256 28.6684 18.6707 28.1062C19.2157 27.544 19.5289 26.7841 19.5441 25.9869V25.7254L27.7572 20.805C28.2726 21.3362 28.9697 21.6341 29.6961 21.6338C30.3781 21.6308 31.0353 21.3682 31.543 20.8959C32.0507 20.4235 32.3737 19.7743 32.4507 19.0713C32.5277 18.3683 32.3533 17.6604 31.9607 17.0819C31.568 16.5034 30.9844 16.0946 30.3204 15.9329V6.14453C30.8916 6.08765 31.4346 5.8599 31.8834 5.48896C32.3322 5.11801 32.6675 4.61984 32.8486 4.05494C33.0297 3.49005 33.0488 2.88275 32.9035 2.30682C32.7583 1.73089 32.4549 1.21112 32.0304 0.810637C31.6058 0.410157 31.0783 0.146207 30.5119 0.0508508C29.9455 -0.0445049 29.3646 0.0328386 28.8398 0.273484C28.3149 0.514129 27.8688 0.907719 27.5554 1.40644C27.2421 1.90517 27.0751 2.48757 27.0747 3.08288C27.0746 3.23633 27.085 3.3896 27.1058 3.54153ZM21.8203 13.3179L17.6982 10.8476L27.6409 4.89332V4.92148L23.1194 13.0483C23.0043 13.0259 22.8875 13.0138 22.7704 13.0121C22.4317 13.0155 22.1014 13.1218 21.8203 13.3179ZM28.2769 18.7291C28.2761 18.4377 28.3587 18.1526 28.5142 17.9099C28.6696 17.6672 28.891 17.4779 29.1503 17.3658C29.4096 17.2537 29.6951 17.224 29.9706 17.2803C30.2462 17.3367 30.4994 17.4766 30.6983 17.6824C30.8972 17.8882 31.0328 18.1505 31.0878 18.4363C31.1429 18.722 31.115 19.0183 31.0077 19.2876C30.9004 19.5569 30.7185 19.7871 30.485 19.9491C30.2515 20.1111 29.977 20.1975 29.6961 20.1975C29.3204 20.1975 28.96 20.0429 28.6939 19.7677C28.4279 19.4924 28.2779 19.1189 28.2769 18.7291ZM31.4566 3.08288C31.4574 3.37428 31.3748 3.65937 31.2193 3.90205C31.0639 4.14472 30.8425 4.33408 30.5832 4.44615C30.3239 4.55821 30.0384 4.58795 29.7629 4.53159C29.4873 4.47523 29.234 4.3353 29.0352 4.12953C28.8363 3.92376 28.7007 3.6614 28.6457 3.37566C28.5906 3.08991 28.6185 2.79364 28.7258 2.52434C28.8331 2.25505 29.015 2.02484 29.2485 1.86286C29.4819 1.70088 29.7565 1.61442 30.0374 1.61442C30.4131 1.61442 30.7735 1.769 31.0396 2.04428C31.3056 2.31955 31.4556 2.69305 31.4566 3.08288ZM18.0007 25.9668C18.0015 26.2582 17.9189 26.5432 17.7634 26.7859C17.6079 27.0286 17.3865 27.218 17.1273 27.33C16.868 27.4421 16.5825 27.4718 16.3069 27.4155C16.0314 27.3591 15.7781 27.2192 15.5792 27.0134C15.3804 26.8076 15.2448 26.5453 15.1897 26.2595C15.1346 25.9738 15.1625 25.6775 15.2698 25.4082C15.3771 25.1389 15.559 24.9087 15.7925 24.7467C16.026 24.5848 16.3006 24.4983 16.5814 24.4983C16.9572 24.4983 17.3176 24.6529 17.5836 24.9282C17.8497 25.2034 17.9997 25.5769 18.0007 25.9668ZM18.7414 23.8626L22.7471 16.6611H22.7898C23.1944 16.6647 23.5878 16.5225 23.9027 16.2588L26.9817 18.1014C26.8812 18.5792 26.8958 19.0753 27.0243 19.5458L19.0749 24.3092C18.9771 24.15 18.8655 24.0006 18.7414 23.8626ZM4.39353 3.08288C4.3943 3.37446 4.31162 3.6597 4.15596 3.90246C4.0003 4.14523 3.77868 4.33458 3.51919 4.44653C3.25969 4.55848 2.974 4.58798 2.69833 4.53129C2.42266 4.4746 2.16941 4.33428 1.97069 4.12811C1.77197 3.92193 1.63672 3.65919 1.58208 3.37318C1.52744 3.08717 1.55587 2.79077 1.66377 2.52155C1.77167 2.25232 1.95419 2.0224 2.18818 1.8609C2.42217 1.69941 2.69711 1.61363 2.97814 1.61442C3.35186 1.6176 3.7093 1.77358 3.97284 2.04852C4.23639 2.32345 4.38477 2.69514 4.38578 3.08288H4.39353ZM4.3121 18.7291C4.3121 19.0203 4.22886 19.305 4.07291 19.5471C3.91696 19.7893 3.6953 19.978 3.43596 20.0894C3.17662 20.2009 2.89125 20.2301 2.61594 20.1732C2.34063 20.1164 2.08774 19.9762 1.88925 19.7703C1.69076 19.5643 1.55559 19.302 1.50083 19.0163C1.44606 18.7307 1.47417 18.4346 1.58159 18.1656C1.68901 17.8965 1.87093 17.6665 2.10432 17.5047C2.33772 17.3429 2.61212 17.2566 2.89283 17.2566C3.2679 17.2587 3.62691 17.4148 3.8914 17.6907C4.15589 17.9666 4.30435 18.3399 4.30434 18.7291H4.3121ZM9.83795 16.6611L14.1035 24.3052C14.0518 24.3883 14.0053 24.4728 13.9639 24.5586L5.55687 19.5377C5.62838 19.2759 5.66492 19.0052 5.66545 18.7331C5.66523 18.5194 5.64314 18.3063 5.59953 18.0974L8.67849 16.2548C8.99343 16.5184 9.38675 16.6606 9.79142 16.6571L9.83795 16.6611ZM21.0409 14.8386C21.0399 15.283 21.1958 15.7123 21.4791 16.0456L17.5703 23.0701C17.1745 22.926 16.7538 22.8709 16.3359 22.9083C15.9181 22.9458 15.5127 23.075 15.1466 23.2873L11.1176 16.0456C11.4009 15.7123 11.5568 15.283 11.5558 14.8386C11.5559 14.7402 11.5482 14.642 11.5325 14.5449L16.3022 11.6925L21.068 14.5449C21.0485 14.6417 21.0368 14.7399 21.0331 14.8386H21.0409ZM24.558 14.8386C24.5576 14.5021 24.4677 14.1721 24.2982 13.8851L28.7693 5.85888L28.9167 5.92728V15.9611C28.4229 16.11 27.9795 16.4 27.637 16.7979L24.5348 14.9513L24.558 14.8386Z" fill="#00A3FF"/>
<path d="M51.832 19.352C51.592 20.048 51.352 20.768 51.16 21.464C50.968 20.768 50.728 20.048 50.464 19.352L46 7.04H43.912L49.696 23H52.576L58.336 7.04H56.32L51.832 19.352ZM62.0069 9.032V7.04H59.5349V9.032H62.0069ZM61.7189 23V11H59.7989V23H61.7189ZM71.6757 23V21.44H67.8597V12.512H71.8197V11H67.8597V8.336H66.8277L66.1077 10.832L63.6597 11.432V12.512H65.9397V20.192C65.9397 22.112 66.5397 23 68.8437 23H71.6757ZM77.6958 23.312C80.4798 23.312 81.7518 21.632 82.2078 20.192C82.2078 21.08 82.2798 21.968 82.3758 23H84.1278C84.0078 21.824 83.9838 20.888 83.9838 20.024V14.264C83.9838 12.104 82.4958 10.592 79.2078 10.592C75.8958 10.592 74.0958 12.224 74.0238 14.768H75.9198C76.0398 13.208 76.9278 12.104 79.2798 12.104C81.6078 12.104 82.2318 13.04 82.2318 14.264C82.2318 15.176 81.7038 15.512 80.4318 15.728L77.3838 16.232C74.7918 16.664 73.7358 17.888 73.7358 19.832C73.7358 22.112 75.3918 23.312 77.6958 23.312ZM78.0798 21.8C76.6638 21.8 75.6798 21.128 75.6798 19.76C75.6798 18.464 76.4478 17.84 78.0798 17.504L80.0718 17.096C80.9838 16.904 81.6318 16.712 82.2318 16.28V17.312C82.2318 19.592 80.9118 21.8 78.0798 21.8ZM98.9562 18.776C98.9562 16.424 97.8762 15.704 96.3642 15.272C98.1402 14.864 99.4602 13.376 99.4602 11.24C99.4602 8.672 97.8522 7.04 94.5642 7.04H87.1242V23H89.1162V15.848H93.6042C95.8122 15.848 97.0362 16.784 97.0362 19.064V20.528C97.0362 21.68 97.1562 22.472 97.3242 23H99.2682C99.1242 22.4 98.9562 21.632 98.9562 20.456V18.776ZM89.1162 14.36V8.648H94.3482C96.4362 8.648 97.3722 9.56 97.3722 11.408C97.3722 13.232 96.5562 14.36 94.3242 14.36H89.1162ZM107.762 21.92C105.362 21.92 103.778 20.72 103.634 17.432H113.282C113.33 17.144 113.33 16.904 113.33 16.592C113.33 13.088 111.29 10.616 107.69 10.616C103.706 10.616 101.738 13.4 101.738 16.976C101.738 20.6 103.562 23.384 107.69 23.384C111.674 23.384 113.066 21.128 113.306 19.304H111.554C111.194 20.816 110.114 21.92 107.762 21.92ZM107.714 12.08C109.946 12.08 111.362 13.232 111.458 15.992H103.682C103.946 13.16 105.434 12.08 107.714 12.08ZM121.309 21.92C118.909 21.92 117.325 20.72 117.181 17.432H126.829C126.877 17.144 126.877 16.904 126.877 16.592C126.877 13.088 124.837 10.616 121.237 10.616C117.253 10.616 115.285 13.4 115.285 16.976C115.285 20.6 117.109 23.384 121.237 23.384C125.221 23.384 126.613 21.128 126.853 19.304H125.101C124.741 20.816 123.661 21.92 121.309 21.92ZM121.261 12.08C123.493 12.08 124.909 13.232 125.005 15.992H117.229C117.493 13.16 118.981 12.08 121.261 12.08ZM131.398 23V6.2H129.478V23H131.398ZM134.029 18.992C134.077 21.512 135.661 23.384 139.573 23.384C142.765 23.384 144.469 22.184 144.469 19.736C144.469 17.768 143.461 16.592 140.701 16.184L138.157 15.824C136.645 15.608 136.213 14.888 136.213 14.048C136.213 12.872 137.053 12.056 139.093 12.056C141.301 12.056 142.213 13.184 142.333 14.432H144.229C144.085 12.176 142.285 10.592 139.141 10.592C136.117 10.592 134.341 11.96 134.341 14.192C134.341 16.04 135.517 17.144 137.605 17.432L140.389 17.84C141.901 18.056 142.573 18.68 142.573 19.832C142.573 21.176 141.733 21.92 139.621 21.92C136.861 21.92 135.949 20.624 135.805 18.992H134.029Z" fill="white"/>
</svg>
